<svg width="56" height="56" viewBox="0 0 56 56" fill="none" xmlns="http://www.w3.org/2000/svg">
<path d="M38.6145 28L54.5348 12.0798C56.4884 10.1261 56.4884 6.95864 54.5348 5.00341L50.9966 1.46523C49.043 -0.488409 45.8755 -0.488409 43.9202 1.46523L28 17.3855L12.0798 1.46523C10.1261 -0.488409 6.95864 -0.488409 5.00341 1.46523L1.46523 5.00341C-0.488409 6.95704 -0.488409 10.1245 1.46523 12.0798L17.3855 28L1.46523 43.9202C-0.488409 45.8739 -0.488409 49.0414 1.46523 50.9966L5.00341 54.5348C6.95705 56.4884 10.1261 56.4884 12.0798 54.5348L28 38.6145L43.9202 54.5348C45.8739 56.4884 49.043 56.4884 50.9966 54.5348L54.5348 50.9966C56.4884 49.043 56.4884 45.8755 54.5348 43.9202L38.6145 28Z" fill="#E06E6E"/>
</svg>
