<svg width="22" height="24" viewBox="0 0 22 24" fill="none" xmlns="http://www.w3.org/2000/svg">
<path d="M21.2143 1.50001H15.3214L14.8598 0.623446C14.762 0.436046 14.6114 0.27841 14.4249 0.16827C14.2384 0.0581305 14.0233 -0.000141936 13.804 8.21846e-06H8.19107C7.97224 -0.000794775 7.7576 0.0572604 7.57173 0.167522C7.38587 0.277784 7.23631 0.435793 7.14018 0.623446L6.67857 1.50001H0.785714C0.57733 1.50001 0.37748 1.57903 0.23013 1.71968C0.0827804 1.86033 0 2.0511 0 2.25001L0 3.75001C0 3.94892 0.0827804 4.13969 0.23013 4.28034C0.37748 4.42099 0.57733 4.50001 0.785714 4.50001H21.2143C21.4227 4.50001 21.6225 4.42099 21.7699 4.28034C21.9172 4.13969 22 3.94892 22 3.75001V2.25001C22 2.0511 21.9172 1.86033 21.7699 1.71968C21.6225 1.57903 21.4227 1.50001 21.2143 1.50001ZM2.6125 21.8906C2.64997 22.4619 2.9141 22.998 3.3511 23.3899C3.7881 23.7817 4.36513 23.9999 4.96473 24H17.0353C17.6349 23.9999 18.2119 23.7817 18.6489 23.3899C19.0859 22.998 19.35 22.4619 19.3875 21.8906L20.4286 6.00001H1.57143L2.6125 21.8906Z" fill="black"/>
</svg>
