<svg width="279" height="116" viewBox="0 0 279 116" fill="none" xmlns="http://www.w3.org/2000/svg">
<path d="M71.467 84.991C78.0876 93.9819 76.6832 93.7703 81.0907 96.139C90.1908 101.029 73.0126 104.403 65.2814 100.758C57.5479 97.1151 54.0482 88.2827 57.4661 81.0323C60.8822 73.7818 66.3972 78.1076 71.467 84.991V84.991ZM113.58 86.4537L112.992 85.7167C112.992 85.7167 112.869 85.5631 112.642 85.3003C112.416 85.0288 112.065 84.6861 111.678 84.191C111.577 84.0714 111.476 83.9418 111.364 83.8174C111.256 83.6876 111.135 83.5666 111.029 83.413C110.813 83.111 110.567 82.8124 110.314 82.4918C110.074 82.133 109.825 81.7797 109.569 81.4319C109.33 81.0463 109.072 80.6555 108.816 80.2529C108.338 79.4099 107.823 78.5396 107.405 77.5688C107.303 77.3246 107.168 77.1012 107.082 76.8452C106.988 76.5937 106.887 76.3445 106.78 76.0978C106.724 75.9768 106.685 75.8454 106.644 75.7155C106.6 75.5875 106.555 75.4579 106.511 75.3283C106.422 75.0723 106.321 74.8179 106.257 74.5485C106.18 74.2839 106.108 74.0177 106.021 73.7551C105.955 73.4871 105.9 73.2125 105.832 72.9426C105.799 72.8063 105.757 72.6748 105.731 72.5366L105.663 72.1202L105.582 71.7072C105.555 71.569 105.519 71.4344 105.512 71.2908C105.485 71.0094 105.441 70.7312 105.402 70.4498C105.393 70.3847 105.374 70.303 105.374 70.2484L105.369 70.0895C105.364 69.9837 105.356 69.8779 105.345 69.7723C105.335 69.6665 105.321 69.5623 105.308 69.4565L105.301 69.4173L105.299 69.3983L105.298 69.3591L105.294 69.1971L105.284 68.8747L105.253 67.8407L105.253 67.8303L105.255 67.7772L105.26 67.6698L105.267 67.4548L105.279 67.0248C105.286 66.8814 105.274 66.7366 105.289 66.5948L105.328 66.1682L105.362 65.7432C105.369 65.5997 105.374 65.4581 105.402 65.3181C105.441 65.0383 105.485 64.7603 105.513 64.4771C105.519 64.3355 105.555 64.1989 105.583 64.0623L105.663 63.6475L105.731 63.2328C105.757 63.0946 105.8 62.963 105.832 62.8266C105.9 62.557 105.955 62.2824 106.021 62.0126C106.108 61.7516 106.18 61.4854 106.257 61.2192C106.322 60.9496 106.422 60.6969 106.511 60.4393C106.556 60.3097 106.6 60.1817 106.644 60.0537C106.685 59.9239 106.724 59.7927 106.781 59.6715C106.887 59.4247 106.988 59.1755 107.083 58.9241C107.168 58.6681 107.303 58.4447 107.405 58.2007C107.823 57.2296 108.338 56.3576 108.816 55.5166C109.072 55.1122 109.33 54.7229 109.569 54.3357C109.826 53.989 110.074 53.6362 110.315 53.2777C110.567 52.9569 110.813 52.6583 111.029 52.3563C111.145 52.1959 111.229 52.0987 111.321 51.9793C111.412 51.8667 111.493 51.747 111.575 51.6378L111.809 51.317C111.826 51.2914 111.845 51.2658 111.862 51.2402C111.893 51.2112 111.924 51.1822 111.953 51.1534C112.012 51.097 112.07 51.0424 112.125 50.9894C112.348 50.7814 112.533 50.597 112.684 50.4468C112.839 50.2934 112.991 50.1375 113.14 49.9792C114.111 48.9232 114.64 47.4435 114.44 45.9097C114.08 43.1571 111.558 41.2187 108.806 41.5787C108.806 41.5787 108.579 41.6095 108.161 41.6795C107.905 41.7222 107.649 41.7695 107.395 41.8211C107.32 41.8347 107.241 41.8501 107.161 41.8655C107.122 41.8739 107.081 41.8823 107.038 41.8893C106.987 41.9063 106.934 41.9235 106.881 41.9423C106.666 42.0157 106.439 42.0941 106.199 42.1779C105.958 42.2647 105.7 42.3519 105.434 42.4559C105.173 42.5581 104.871 42.6691 104.624 42.782C104.098 43.0072 103.54 43.2768 102.933 43.5636C102.347 43.8774 101.733 44.2358 101.083 44.6232C100.459 45.0397 99.8016 45.4919 99.136 45.9935C97.8407 47.0343 96.4707 48.2543 95.2352 49.751C94.9652 50.0544 94.7094 50.3763 94.4581 50.7064C90.1652 36.7418 81.9111 28.5491 72.3531 22.2216C55.2485 10.8999 43.8549 12.1625 35.7275 18.5033C27.5984 24.8443 28.4244 40.4456 28.4244 40.4456L92.6246 53.412L92.5974 53.4574C92.3296 53.9096 92.048 54.3634 91.8209 54.8496C91.5837 55.331 91.3397 55.8154 91.1093 56.312C90.8961 56.8137 90.6945 57.3273 90.4915 57.8443C90.3943 58.1055 90.2885 58.3649 90.2012 58.6293C90.1176 58.8955 90.0343 59.1633 89.9504 59.4314C89.8718 59.7028 89.7916 59.9724 89.7114 60.2436C89.633 60.515 89.5476 60.7862 89.493 61.0644C89.365 61.6188 89.254 62.1787 89.138 62.7401C89.0152 63.2997 88.969 63.8715 88.8906 64.4416L88.7882 65.2982C88.7524 65.5848 88.7506 65.8716 88.7336 66.1598L88.6978 67.0217L88.6826 67.4535L88.674 67.6685L88.6704 67.7777L88.6688 67.8307V67.8579C88.6704 68.0029 88.662 67.5729 88.674 68.1889L88.7286 69.4823L88.7422 69.8047L88.7508 69.9652L88.7524 70.0077L88.7592 70.0676L88.7712 70.1885L88.8752 71.1562L88.9912 72.1204L89.0562 72.5999C89.08 72.7587 89.1108 72.8849 89.138 73.0299C89.254 73.5913 89.3648 74.1509 89.493 74.7037C89.5476 74.9819 89.633 75.2531 89.7114 75.5264C89.7916 75.7976 89.8718 76.0674 89.9504 76.3368C90.0343 76.6064 90.1176 76.8726 90.2012 77.1406C90.2882 77.405 90.3941 77.6644 90.4915 77.9238C90.6945 78.4424 90.8959 78.9545 91.1093 79.4577C91.3397 79.9525 91.5835 80.4389 91.8209 80.9201C92.0477 81.4066 92.3293 81.8586 92.5974 82.3126C92.8704 82.7612 93.123 83.2152 93.4232 83.6332C94.0136 84.4744 94.5886 85.2919 95.2355 86.0189C96.4709 87.5154 97.8412 88.7354 99.1362 89.7762C99.8016 90.2781 100.459 90.7303 101.083 91.1465C101.733 91.5339 102.348 91.8921 102.933 92.2063C103.54 92.4914 104.098 92.7626 104.624 92.9859C105.148 93.213 105.651 93.3786 106.097 93.5322C106.32 93.6072 106.53 93.6772 106.73 93.7438C106.926 93.8138 107.124 93.8496 107.299 93.8974C107.654 93.9894 107.958 94.0578 108.204 94.1106C108.694 94.218 108.955 94.2642 108.955 94.2642C110.27 94.486 111.69 94.1722 112.814 93.2746C114.909 91.6021 115.252 88.5492 113.58 86.4537V86.4537Z" fill="#00B1FF"/>
<path d="M99.6929 64.5515C99.6929 74.9724 77.6806 99.3343 50.5252 99.3343C31.1392 99.3343 14.374 91.3962 6.36777 79.8646C5.80294 79.0522 6.42916 77.9483 7.41562 78.0335C8.48544 78.1276 9.7875 78.23 11.0365 78.2982C12.6218 78.387 13.3368 76.3495 12.0468 75.4247C9.58269 73.6568 6.37139 71.4181 4.26572 70.1945C2.54747 69.1931 1.44162 67.3894 1.37342 65.4013C1.36429 65.1181 1.35961 64.8348 1.35938 64.5515C1.35937 45.3412 23.3715 29.7689 50.525 29.7689C77.6806 29.7687 99.6929 54.1307 99.6929 64.5515Z" fill="#59CAFC"/>
<path d="M19.3409 52.4166C21.4142 52.4166 23.0966 54.0957 23.0966 56.1758V60.7917C23.0966 62.8682 21.4142 64.5509 19.3409 64.5509C17.2642 64.5509 15.5818 62.8682 15.5818 60.7917V56.1758C15.5818 54.0957 17.2642 52.4166 19.3409 52.4166Z" fill="#2B3B47"/>
<path d="M51.075 84.7817C49.9895 86.3055 48.6569 85.1059 49.2013 83.3142C50.4624 79.1679 51.4946 72.5215 51.4946 65.0322C51.4946 57.5412 50.4624 50.8968 49.2013 46.7502C48.6569 44.9586 49.9895 43.7591 51.075 45.2828C53.8733 49.2091 55.8901 56.5842 55.8901 65.0325C55.8901 73.4821 53.8733 80.8556 51.075 84.7817V84.7817ZM64.2358 79.2594C66.2508 76.4304 67.7047 71.1184 67.7047 65.0318C67.7047 58.9452 66.2508 53.633 64.2358 50.8039C63.4523 49.7066 62.4933 50.5719 62.8859 51.8619C63.7953 54.8498 64.5376 59.636 64.5376 65.0318C64.5376 70.4274 63.7953 75.2153 62.8859 78.2032C62.4933 79.4935 63.4523 80.3585 64.2358 79.2594Z" fill="#00B1FF"/>
<path d="M138.646 60H137.892C137.718 60 137.632 59.896 137.632 59.688V43.594C137.632 43.386 137.718 43.282 137.892 43.282H145.9C146.108 43.282 146.212 43.3773 146.212 43.568V44.166C146.212 44.3567 146.108 44.452 145.9 44.452H139.192C139.018 44.452 138.932 44.53 138.932 44.686V51.004C138.932 51.1427 139.018 51.212 139.192 51.212H145.198C145.388 51.212 145.484 51.3073 145.484 51.498V52.122C145.484 52.3127 145.388 52.408 145.198 52.408H139.192C139.018 52.408 138.932 52.4773 138.932 52.616V59.688C138.932 59.896 138.836 60 138.646 60ZM152.035 44.556V42.06C152.035 41.8693 152.122 41.774 152.295 41.774H153.075C153.249 41.774 153.335 41.8693 153.335 42.06V44.556C153.335 44.764 153.249 44.868 153.075 44.868H152.295C152.122 44.868 152.035 44.764 152.035 44.556ZM152.035 59.688V47.052C152.035 46.844 152.122 46.74 152.295 46.74H153.049C153.24 46.74 153.335 46.844 153.335 47.052V59.688C153.335 59.896 153.249 60 153.075 60H152.295C152.122 60 152.035 59.896 152.035 59.688ZM164.254 60H159.73C159.54 60 159.444 59.9047 159.444 59.714V59.116C159.444 58.9427 159.54 58.856 159.73 58.856H164.124C165.684 58.856 166.464 58.2493 166.464 57.036V56.412C166.464 55.2853 165.979 54.5487 165.008 54.202L161.758 52.954C160.874 52.6073 160.242 52.2 159.86 51.732C159.496 51.264 159.314 50.614 159.314 49.782C159.314 47.754 160.432 46.74 162.668 46.74H166.88C167.071 46.74 167.166 46.8353 167.166 47.026V47.624C167.166 47.7973 167.071 47.884 166.88 47.884H162.798C162.088 47.884 161.55 48.04 161.186 48.352C160.84 48.664 160.666 49.028 160.666 49.444V50.042C160.666 50.5273 160.796 50.9087 161.056 51.186C161.334 51.4633 161.75 51.6973 162.304 51.888L165.554 53.188C166.456 53.4827 167.054 53.9247 167.348 54.514C167.66 55.086 167.816 55.892 167.816 56.932C167.816 57.972 167.522 58.7433 166.932 59.246C166.36 59.7487 165.468 60 164.254 60ZM174.776 60H174.022C173.848 60 173.762 59.896 173.762 59.688V42.034C173.762 41.826 173.848 41.722 174.022 41.722H174.776C174.966 41.722 175.062 41.826 175.062 42.034V48.092H175.166C175.651 47.1907 176.552 46.74 177.87 46.74H179.586C180.695 46.74 181.57 47.0693 182.212 47.728C182.853 48.3867 183.174 49.288 183.174 50.432V59.688C183.174 59.896 183.087 60 182.914 60H182.16C181.969 60 181.874 59.896 181.874 59.688V50.484C181.874 49.6693 181.666 49.0367 181.25 48.586C180.834 48.1353 180.227 47.91 179.43 47.91H177.74C176.908 47.91 176.249 48.1353 175.764 48.586C175.296 49.0193 175.062 49.6433 175.062 50.458V59.688C175.062 59.896 174.966 60 174.776 60ZM189.669 44.556V42.06C189.669 41.8693 189.756 41.774 189.929 41.774H190.709C190.883 41.774 190.969 41.8693 190.969 42.06V44.556C190.969 44.764 190.883 44.868 190.709 44.868H189.929C189.756 44.868 189.669 44.764 189.669 44.556ZM189.669 59.688V47.052C189.669 46.844 189.756 46.74 189.929 46.74H190.683C190.874 46.74 190.969 46.844 190.969 47.052V59.688C190.969 59.896 190.883 60 190.709 60H189.929C189.756 60 189.669 59.896 189.669 59.688ZM198.612 60H197.858C197.685 60 197.598 59.896 197.598 59.688V47.052C197.598 46.844 197.685 46.74 197.858 46.74H198.612C198.803 46.74 198.898 46.844 198.898 47.052V48.092H199.002C199.488 47.1907 200.389 46.74 201.706 46.74H203.422C204.532 46.74 205.407 47.0693 206.048 47.728C206.69 48.3867 207.01 49.288 207.01 50.432V59.688C207.01 59.896 206.924 60 206.75 60H205.996C205.806 60 205.71 59.896 205.71 59.688V50.484C205.71 49.6693 205.502 49.0367 205.086 48.586C204.67 48.1353 204.064 47.91 203.266 47.91H201.576C200.744 47.91 200.086 48.1353 199.6 48.586C199.132 49.0193 198.898 49.6433 198.898 50.458V59.688C198.898 59.896 198.803 60 198.612 60ZM218.524 59.246H216.834C215.725 59.246 214.841 58.9167 214.182 58.258C213.541 57.5993 213.22 56.7067 213.22 55.58V50.432C213.22 49.288 213.541 48.3867 214.182 47.728C214.841 47.0693 215.733 46.74 216.86 46.74H222.372C222.563 46.74 222.658 46.844 222.658 47.052V59.948C222.658 61.092 222.329 61.9933 221.67 62.652C221.011 63.3107 220.119 63.64 218.992 63.64H214.26C214.069 63.64 213.974 63.5447 213.974 63.354V62.73C213.974 62.5567 214.069 62.47 214.26 62.47H218.888C219.685 62.47 220.292 62.2447 220.708 61.794C221.124 61.3607 221.332 60.728 221.332 59.896V57.894H221.228C220.795 58.7953 219.893 59.246 218.524 59.246ZM221.332 55.528V48.144C221.332 47.988 221.254 47.91 221.098 47.91H216.99C216.193 47.91 215.577 48.1353 215.144 48.586C214.728 49.0193 214.52 49.652 214.52 50.484V55.528C214.52 56.3427 214.728 56.9753 215.144 57.426C215.577 57.8593 216.193 58.076 216.99 58.076H218.654C219.486 58.076 220.136 57.8593 220.604 57.426C221.089 56.9753 221.332 56.3427 221.332 55.528Z" fill="#EEEEEE"/>
<path d="M152.817 67.852H158.145C158.649 67.852 158.901 68.104 158.901 68.608V90.244C158.901 90.748 158.649 91 158.145 91H155.193C154.689 91 154.437 90.748 154.437 90.244V73.18H154.293L150.621 85.24C150.477 85.72 150.177 85.96 149.721 85.96H146.697C146.241 85.96 145.941 85.72 145.797 85.24L142.053 73.144H141.909V90.244C141.909 90.532 141.861 90.736 141.765 90.856C141.669 90.952 141.465 91 141.153 91H138.201C137.697 91 137.445 90.748 137.445 90.244V68.608C137.445 68.104 137.697 67.852 138.201 67.852H143.565C143.901 67.852 144.129 68.02 144.249 68.356L148.065 81.064H148.281L152.133 68.356C152.205 68.02 152.433 67.852 152.817 67.852ZM165.979 91H162.523C162.091 91 161.947 90.748 162.091 90.244L167.779 68.608C167.947 68.104 168.307 67.852 168.859 67.852H173.647C174.247 67.852 174.607 68.104 174.727 68.608L180.415 90.244C180.559 90.748 180.415 91 179.983 91H176.527C176.263 91 176.083 90.952 175.987 90.856C175.891 90.736 175.819 90.532 175.771 90.244L174.763 86.284H167.743L166.735 90.244C166.687 90.532 166.603 90.736 166.483 90.856C166.387 90.952 166.219 91 165.979 91ZM171.199 72.208L168.607 82.612H173.935L171.343 72.208H171.199ZM187.35 91H184.362C183.858 91 183.606 90.748 183.606 90.244V68.608C183.606 68.104 183.858 67.852 184.362 67.852H187.062C187.566 67.852 187.902 68.02 188.07 68.356L195.342 82H195.486V68.608C195.486 68.104 195.738 67.852 196.242 67.852H199.23C199.734 67.852 199.986 68.104 199.986 68.608V90.244C199.986 90.748 199.734 91 199.23 91H196.602C196.074 91 195.69 90.76 195.45 90.28L188.25 76.888H188.106V90.244C188.106 90.748 187.854 91 187.35 91ZM207.076 91H203.62C203.188 91 203.044 90.748 203.188 90.244L208.876 68.608C209.044 68.104 209.404 67.852 209.956 67.852H214.744C215.344 67.852 215.704 68.104 215.824 68.608L221.512 90.244C221.656 90.748 221.512 91 221.08 91H217.624C217.36 91 217.18 90.952 217.084 90.856C216.988 90.736 216.916 90.532 216.868 90.244L215.86 86.284H208.84L207.832 90.244C207.784 90.532 207.7 90.736 207.58 90.856C207.484 90.952 207.316 91 207.076 91ZM212.296 72.208L209.704 82.612H215.032L212.44 72.208H212.296ZM234.099 91H230.283C228.387 91 226.923 90.496 225.891 89.488C224.859 88.48 224.343 87.028 224.343 85.132V73.72C224.343 71.824 224.859 70.372 225.891 69.364C226.923 68.356 228.387 67.852 230.283 67.852H234.099C235.971 67.852 237.423 68.368 238.455 69.4C239.487 70.408 240.003 71.848 240.003 73.72V74.8C240.003 75.328 239.751 75.592 239.247 75.592H236.187C235.683 75.592 235.431 75.328 235.431 74.8V73.936C235.431 73.168 235.275 72.628 234.963 72.316C234.651 71.98 234.111 71.812 233.343 71.812H231.003C230.259 71.812 229.719 71.98 229.383 72.316C229.071 72.628 228.915 73.168 228.915 73.936V84.916C228.915 85.684 229.071 86.236 229.383 86.572C229.719 86.884 230.259 87.04 231.003 87.04H233.343C234.111 87.04 234.651 86.884 234.963 86.572C235.275 86.236 235.431 85.684 235.431 84.916V82.648C235.431 82.384 235.299 82.252 235.035 82.252H232.875C232.371 82.252 232.119 82 232.119 81.496V79.048C232.119 78.544 232.371 78.292 232.875 78.292H239.175C239.727 78.292 240.003 78.568 240.003 79.12V85.132C240.003 87.004 239.487 88.456 238.455 89.488C237.423 90.496 235.971 91 234.099 91ZM256.848 91H245.076C244.572 91 244.32 90.748 244.32 90.244V68.608C244.32 68.104 244.572 67.852 245.076 67.852H256.848C257.328 67.852 257.568 68.104 257.568 68.608V71.056C257.568 71.56 257.328 71.812 256.848 71.812H249.324C249.036 71.812 248.892 71.944 248.892 72.208V76.888C248.892 77.152 249.036 77.284 249.324 77.284H255.48C255.984 77.284 256.236 77.536 256.236 78.04V80.488C256.236 80.992 255.984 81.244 255.48 81.244H249.324C249.036 81.244 248.892 81.376 248.892 81.64V86.644C248.892 86.908 249.036 87.04 249.324 87.04H256.848C257.328 87.04 257.568 87.292 257.568 87.796V90.244C257.568 90.748 257.328 91 256.848 91ZM265.363 91H262.303C261.799 91 261.547 90.748 261.547 90.244V68.608C261.547 68.104 261.799 67.852 262.303 67.852H270.871C272.743 67.852 274.207 68.368 275.263 69.4C276.319 70.432 276.847 71.884 276.847 73.756V76.564C276.847 79.276 275.779 81.076 273.643 81.964V82.108L277.495 90.136C277.711 90.712 277.507 91 276.883 91H273.967C273.535 91 273.223 90.952 273.031 90.856C272.839 90.76 272.683 90.556 272.563 90.244L268.963 82.468H266.551C266.263 82.468 266.119 82.6 266.119 82.864V90.244C266.119 90.748 265.867 91 265.363 91ZM266.515 78.796H270.043C270.811 78.796 271.375 78.64 271.735 78.328C272.095 77.992 272.275 77.464 272.275 76.744V73.936C272.275 73.192 272.095 72.652 271.735 72.316C271.375 71.98 270.811 71.812 270.043 71.812H266.515C266.251 71.812 266.119 71.944 266.119 72.208V78.4C266.119 78.664 266.251 78.796 266.515 78.796Z" fill="#FFFFFF"/>
</svg>
